<svg xmlns="http://www.w3.org/2000/svg" width="64" height="40" viewBox="0 0 64 40" fill="#1a1a1a">
  <!-- C -->
  <path d="M16.5 40C11.1 40 7 38.2 4.2 34.6 1.4 31 0 26.2 0 20s1.4-11 4.2-14.6C7 1.8 11.1 0 16.5 0c4.2 0 7.7 1.2 10.5 3.6S31.5 9 31.8 13h-7.5c-.4-2-1.2-3.5-2.6-4.7-1.3-1.2-3-1.8-4.9-1.8-2.8 0-5 1.1-6.5 3.4C8.8 12.2 8 15.6 8 20s.8 7.8 2.3 10.1c1.5 2.3 3.7 3.4 6.5 3.4 1.9 0 3.6-.6 4.9-1.8 1.4-1.2 2.2-2.7 2.6-4.7h7.5c-.3 4-1.8 7.2-4.8 9.4C24.2 38.8 20.7 40 16.5 40z"/>
  <!-- 6 -->
  <path d="M51.5 40c-4.2 0-7.5-1.4-9.9-4.1-2.4-2.8-3.6-6.4-3.6-10.9 0-3.5.7-6.7 2.1-9.5 1.4-2.8 3.3-5.4 5.7-7.7L50.4 3l3.8-3h8.5l-8 7.5-4.2 4.5c1.2-.5 2.6-.7 4-.7 3.6 0 6.5 1.2 8.7 3.7 2.2 2.4 3.3 5.6 3.3 9.5 0 4.5-1.4 8.1-4.1 10.8C59.7 38.6 56 40 51.5 40zm0-7c1.9 0 3.4-.7 4.5-2 1.1-1.4 1.7-3.2 1.7-5.5s-.6-4.1-1.7-5.5c-1.1-1.3-2.6-2-4.5-2s-3.4.7-4.5 2c-1.1 1.4-1.7 3.2-1.7 5.5s.6 4.1 1.7 5.5c1.1 1.3 2.6 2 4.5 2z"/>
</svg>
