<svg xmlns="http://www.w3.org/2000/svg" viewBox="0 0 200 48">
  <!-- C6 Bank logo - faithful reproduction -->
  <!-- "C" letter -->
  <path d="M22.8 38.4c-5.4 0-9.6-1.8-12.6-5.4C7.2 29.4 5.7 24.9 5.7 19.5c0-5.4 1.5-9.9 4.5-13.5C13.2 2.4 17.4.6 22.8.6c4.2 0 7.5 1.2 10.2 3.6 2.7 2.4 4.2 5.7 4.5 9.6H28.8c-.3-1.8-1.2-3.3-2.4-4.5-1.2-1.2-2.7-1.8-4.5-1.8-2.7 0-4.8 1.2-6.3 3.3-1.5 2.1-2.1 5.1-2.1 8.7s.6 6.6 2.1 8.7c1.5 2.1 3.6 3.3 6.3 3.3 1.8 0 3.3-.6 4.5-1.8 1.2-1.2 2.1-2.7 2.4-4.5h8.7c-.3 3.9-1.8 7.2-4.5 9.6-2.7 2.4-6 3.6-10.2 3.6z" fill="#1a1a1a"/>
  <!-- "6" numeral -->
  <path d="M56.4 38.4c-3.6 0-6.6-1.2-8.7-3.6-2.1-2.4-3.3-5.7-3.3-9.6 0-4.2 1.2-7.5 3.6-9.9 2.4-2.4 5.4-3.6 9.3-3.6 3.3 0 6 .9 8.1 2.7l-4.2 5.4c-1.2-.9-2.4-1.5-3.9-1.5-1.8 0-3.3.6-4.2 1.8-.9 1.2-1.5 2.7-1.5 4.8 0 2.1.6 3.6 1.5 4.8.9 1.2 2.4 1.8 4.2 1.8 1.5 0 2.7-.6 3.9-1.5l4.2 5.4c-2.1 1.8-4.8 2.7-8.1 2.7zM49.5 18l5.1-8.4 3.6-8.4h9l-7.8 8.4-4.8 8.4H49.5z" fill="#1a1a1a"/>
  <!-- "B", "a", "n", "k" text -->
  <text x="76" y="34" font-family="Arial, Helvetica, sans-serif" font-size="32" font-weight="700" fill="#1a1a1a" letter-spacing="1">Bank</text>
</svg>
