<svg clip-rule="evenodd" fill-rule="evenodd" stroke-linejoin="round" stroke-miterlimit="2" width="345" height="95" viewBox="118 155 345 95" xmlns="http://www.w3.org/2000/svg"><g fill="#00003c" fill-rule="nonzero" transform="matrix(1.04956 0 0 1.04956 100 145.423)"><path d="m125.351 65.91c.468 3.285 1.382 5.75 2.741 7.392 2.494 2.955 6.763 4.431 12.808 4.43 3.625 0 6.567-.392 8.826-1.173 4.286-1.5 6.428-4.286 6.428-8.358 0-2.38-1.054-4.22-3.163-5.52s-5.44-2.424-9.992-3.372l-7.789-1.715c-7.655-1.694-12.916-3.535-15.782-5.52-4.848-3.323-7.272-8.52-7.272-15.592 0-6.45 2.372-11.81 7.114-16.082 4.743-4.271 11.712-6.405 20.906-6.4 7.676 0 14.224 2.011 19.644 6.034s8.261 9.863 8.524 17.522h-14.436c-.267-4.33-2.202-7.409-5.806-9.235-2.399-1.206-5.385-1.81-8.956-1.81-3.971 0-7.142.784-9.511 2.349s-3.553 3.748-3.553 6.548c0 2.582 1.172 4.504 3.515 5.767 1.499.845 4.686 1.838 9.56 2.981l12.628 2.979c5.533 1.305 9.681 3.048 12.446 5.231 4.288 3.392 6.432 8.294 6.432 14.709 0 6.583-2.541 12.05-7.623 16.402-5.083 4.35-12.262 6.525-21.539 6.523-9.473 0-16.923-2.143-22.35-6.428-5.427-4.286-8.144-10.173-8.151-17.663h14.351zm82.608-3.672c-.854.536-1.758.986-2.7 1.344-1.216.423-2.466.743-3.736.954l-3.163.585c-2.967.524-5.1 1.154-6.394 1.908-2.193 1.272-3.288 3.242-3.286 5.91 0 2.38.669 4.1 2.007 5.158 1.395 1.077 3.12 1.639 4.882 1.588 3.007.012 5.944-.911 8.404-2.64 2.559-1.76 3.888-4.969 3.989-9.625l-.003-5.183zm-8.51-6.5c2.59-.325 4.442-.733 5.557-1.22 1.999-.848 3-2.168 3.002-3.961 0-2.183-.768-3.69-2.302-4.52-1.535-.831-3.782-1.248-6.742-1.25-3.332 0-5.691.815-7.078 2.446-.992 1.204-1.651 2.832-1.979 4.883h-13.437c.295-4.656 1.603-8.484 3.922-11.484 3.693-4.694 10.035-7.04 19.026-7.04 5.858 0 11.055 1.157 15.591 3.47 4.537 2.315 6.804 6.683 6.801 13.104v24.434c0 1.697.029 3.75.095 6.161.099 1.824.375 3.06.83 3.71.527.713 1.236 1.271 2.052 1.617v2.052h-15.12c-.395-.978-.689-1.993-.879-3.03-.177-1.069-.307-2.145-.39-3.226-1.947 2.1-4.198 3.896-6.678 5.327-3.115 1.752-6.64 2.646-10.214 2.59-4.846 0-8.848-1.377-12.006-4.132-3.159-2.755-4.738-6.656-4.738-11.702 0-6.548 2.541-11.29 7.623-14.223 2.786-1.596 6.887-2.736 12.302-3.422zm54.536-40.298c.703.05 1.69.123 2.928.222v11.34c-.781-.1-2.088-.173-3.93-.223-1.842-.049-3.107.352-3.807 1.222-.677.8-1.051 1.814-1.054 2.862v4.492h9.138v9.826h-9.138v42.95h-13.813v-42.951h-7.81v-9.826h7.613v-3.418c0-5.699.961-9.625 2.882-11.78 2.018-3.192 6.883-4.787 14.597-4.787.876 0 1.673.023 2.39.07m36.424 18.183c.179.018.576.042 1.195.074v14.258c-1.328-.152-2.663-.233-4-.243-5.598 0-9.357 1.825-11.279 5.474-1.073 2.054-1.61 5.215-1.61 9.485v25.46h-14.01v-53.261h13.279v9.287c2.149-3.55 4.024-5.979 5.624-7.283 2.603-2.183 5.988-3.274 10.154-3.274.26 0 .478 0 .657.024m35.746 28.614c-.854.537-1.758.987-2.7 1.345-1.216.423-2.466.743-3.736.954l-3.163.585c-2.967.524-5.1 1.154-6.394 1.908-2.2 1.272-3.3 3.246-3.3 5.921 0 2.38.669 4.1 2.007 5.158 1.394 1.078 3.12 1.64 4.882 1.588 3.006.012 5.941-.91 8.4-2.64 2.561-1.761 3.892-4.97 3.993-9.626zm-8.51-6.498c2.59-.326 4.442-.734 5.557-1.222 1.994-.854 2.991-2.174 2.991-3.96 0-2.183-.767-3.69-2.302-4.52-1.535-.831-3.783-1.248-6.745-1.25-3.329 0-5.688.815-7.075 2.446-.991 1.204-1.651 2.832-1.979 4.883h-13.426c.295-4.656 1.603-8.484 3.922-11.484 3.693-4.694 10.035-7.04 19.026-7.04 5.858 0 11.055 1.157 15.591 3.47 4.537 2.315 6.807 6.68 6.812 13.097v24.435c0 1.697.033 3.75.098 6.161.099 1.824.375 3.06.83 3.71.527.712 1.234 1.271 2.049 1.618v2.052h-15.114c-.394-.978-.689-1.994-.878-3.031-.179-1.069-.309-2.145-.39-3.225-1.948 2.099-4.199 3.895-6.679 5.327-3.115 1.752-6.64 2.646-10.213 2.59-4.846 0-8.848-1.377-12.007-4.132-3.159-2.756-4.738-6.656-4.738-11.702 0-6.548 2.541-11.29 7.624-14.223 2.786-1.596 6.886-2.737 12.301-3.422l4.745-.577z"/><path d="m65.594 76.183c-3.74 0-6.196-2.14-6.196-5.35 0-2.675 1.817-4.815 3.954-4.815.854 0 1.602.32 1.602 1.175 0 .535-.214.965.32.965.32 0 .643-.32.643-1.18 0-1.055-.963-1.925-2.351-1.925h-.323c.144-.3.218-.63.214-.964 0-.011 0-.023 0-.034 0-.802-.66-1.462-1.462-1.462-.01 0-.021 0-.032 0-.748 0-1.497.43-1.497.964-.018.134.063.263.191.306.042.014.086.018.13.011.319 0 .428-.317.962-.317.027-.003.053-.005.08-.005.367 0 .67.303.67.67 0 .027-.002.054-.005.081 0 .75-.64 1.056-1.174 1.39-1.816 1.067-2.92 3.035-2.885 5.14 0 2.995 1.712 4.927 4.168 5.776l-1.602 2.464c-2.137 0-3.209 1.608-5.131 5.03-.182-.902-1.003-1.542-1.922-1.5-1.178 0-1.926.855-1.926 2.035-.026.262.166.501.428.531.011.001.023.001.034.001.275 0 .502-.226.502-.502 0-.01 0-.02-.001-.03-.002-.024-.003-.049-.003-.073 0-.533.433-.974.966-.983.748 0 1.054.535 1.054 1.175.023.732-.204 1.45-.643 2.035-2.242 3.636-5.342 5.455-8.013 5.455-2.354 0-3.742-1.39-3.742-2.78 0-1.285.748-2.355 2.03-2.355.855 0 1.389.535 1.389 1.281 0 .644-.534.644-.534.965 0 .214.214.32.429.32.643 0 1.054-.746 1.054-1.496 0-1.18-.963-2.035-2.351-2.035-1.148-.005-2.197.669-2.67 1.715-.476-1.044-1.524-1.717-2.672-1.715-1.405 0-2.354.856-2.354 2.035 0 .75.428 1.496 1.054 1.496.21 0 .425-.106.425-.32 0-.32-.534-.32-.534-.965 0-.746.534-1.281 1.406-1.281 1.279 0 2.028 1.056 2.028 2.355 0 1.39-1.389 2.78-3.74 2.78-2.67 0-5.77-1.82-8.016-5.455-.429-.595-.643-1.319-.607-2.052 0-.641.32-1.176 1.054-1.176.533.009.966.45.966.983 0 .024-.001.049-.003.073-.001.01-.001.02-.001.03 0 .275.227.502.502.502.01 0 .019 0 .029-.001.263-.029.456-.268.429-.531 0-1.18-.748-2.035-1.922-2.035-.921-.045-1.744.596-1.926 1.5-1.908-3.407-2.977-5.012-5.103-5.012l-1.602-2.464c2.46-.855 4.168-2.78 4.168-5.776.034-2.105-1.071-4.073-2.886-5.14-.534-.32-1.173-.64-1.173-1.39-.003-.026-.005-.052-.005-.078 0-.369.304-.673.673-.673.027 0 .054.002.08.005.535 0 .64.317.96.317.014.002.027.003.041.003.156 0 .284-.128.284-.284 0-.012 0-.024-.002-.036 0-.535-.748-.964-1.497-.964-.609-.017-1.168.351-1.393.917-.073.184-.109.38-.104.579-.004.334.07.664.214.964h-.32c-1.405 0-2.35.856-2.35 1.926 0 .858.32 1.179.64 1.179.533 0 .319-.43.319-.965 0-.855.748-1.175 1.606-1.175 2.137 0 3.953 2.14 3.953 4.815 0 3.21-2.46 5.35-6.199 5.35-4.382 0-7.696-3.21-7.696-7.705 0-4.39 2.566-7.392 5.45-10.056l2.46-2.355c3.1-2.89 4.38-5.885 4.38-9.627 0-4.069-2.46-8.563-7.584-10.809 1.054-.32 1.708-1.408 1.708-2.675 0-.855-.32-1.387-.32-2.03 0-1.286.748-2.035 1.817-2.035.851-.028 1.574.649 1.602 1.5.001.017.001.035.001.052 0 .618-.509 1.127-1.127 1.127-.017 0-.034 0-.051-.001-.32 0-.534 0-.534.32s.323.426.748.426c.951.032 1.784-.663 1.922-1.605.23.134.488.208.752.215.017.001.033.001.05.001.676 0 1.231-.556 1.231-1.231 0-.018 0-.037-.001-.055 0-.214-.106-.535-.425-.535-.215 0-.32.215-.32.426.001.011.001.022.001.033 0 .278-.229.507-.507.507-.01 0-.019 0-.029-.001-.438-.043-.813-.336-.962-.75-.477-.853-1.374-1.39-2.351-1.408-1.322-.023-2.471.943-2.675 2.25-.733-.745-1.56-1.391-2.46-1.922.854-.54 1.603-.965 2.46-1.61 1.352-1.022 2.605-2.168 3.743-3.424l5.876-6.42c5.13-5.67 8.434-7.06 11.65-7.06 2.779 0 4.167 1.39 4.167 2.995 0 1.179-.502 2.052-1.304 2.481-.487-.507-.813-1.148-.938-1.84-.109-.532-.214-.532-.323-.532-.215 0-.215.21-.215.426-.02.782.18 1.554.577 2.228-.116 0-.236.02-.352.02-1.054 0-1.708-.538-1.708-1.178-.01-.2.069-.395.215-.532.21-.215.105-.324 0-.324-.429 0-.858.535-.858 1.176 0 .75.643 1.82 2.46 1.82.342 0 .682-.051 1.009-.152 1.238.917 2.94.917 4.178 0 .328.101.67.152 1.012.152 1.814 0 2.46-1.056 2.46-1.82 0-.64-.428-1.176-.854-1.176-.105 0-.214.11 0 .324.143.139.219.333.211.532 0 .64-.64 1.179-1.708 1.179-.123 0-.246 0-.351-.021.397-.674.597-1.446.576-2.228 0-.215 0-.426-.214-.426-.106 0-.215 0-.32.531-.127.692-.453 1.331-.938 1.841-.801-.43-1.308-1.302-1.308-2.481 0-1.605 1.389-2.996 4.168-2.996 3.205 0 6.52 1.39 11.65 7.061l5.876 6.42c1.112 1.281 2.368 2.43 3.742 3.425.854.644 1.603 1.056 2.46 1.608-.9.53-1.727 1.177-2.46 1.922-.208-1.304-1.354-2.268-2.674-2.249-.977.017-1.875.554-2.351 1.408-.149.413-.523.706-.96.75-.01.001-.02.001-.03.001-.277 0-.505-.228-.505-.505 0-.012 0-.023.001-.035 0-.21-.109-.426-.32-.426-.323 0-.428.32-.428.535-.001.017-.001.033-.001.05 0 .678.558 1.236 1.236 1.236.016 0 .031 0 .047-.001.264-.007.522-.081.75-.215.14.94.971 1.634 1.921 1.605.43 0 .749-.105.749-.425s-.215-.32-.534-.32c-.043.005-.087.008-.131.008-.577 0-1.052-.475-1.052-1.052 0-.045.003-.091.009-.136.031-.849.75-1.523 1.599-1.5 1.072 0 1.82.75 1.82 2.035 0 .644-.323 1.176-.323 2.031 0 1.285.643 2.355 1.711 2.675-5.13 2.246-7.587 6.74-7.587 10.81 0 3.741 1.283 6.736 4.379 9.626l2.46 2.355c2.885 2.675 5.45 5.667 5.45 10.056 0 4.495-3.314 7.705-7.696 7.705zm-23.577 19.897c-.612-1.192-1.366-2.305-2.246-3.315.975-.377 1.775-1.102 2.246-2.035.47.932 1.269 1.657 2.242 2.035-.878 1.011-1.631 2.124-2.242 3.315zm1.079-80.251c-.687.31-1.474.31-2.161 0 .485-.375.859-.875 1.082-1.447.222.571.595 1.072 1.079 1.447z"/></g></svg>
