<svg xmlns="http://www.w3.org/2000/svg" viewBox="0 0 600 131">
  <!-- XP icon mark: rounded square with xp letters -->
  <rect x="0" y="0" width="131" height="131" rx="20" ry="20" fill="#1e1e1e"/>
  <!-- Letter X -->
  <path d="M32 30L62 65.5L32 101h16l20-24 20 24h16L74 65.5 104 30H88L68 54 48 30z" fill="#fff"/>
  <!-- Letter P -->
  <path d="M90 30h7v71h-7V30zm7 0h18c13 0 22 9 22 22s-9 22-22 22H97V67h18c9 0 15-6 15-15s-6-15-15-15H97V30z" fill="#fff"/>
  <!-- "investimentos" text -->
  <text x="145" y="88" font-family="Arial, Helvetica, sans-serif" font-size="52" font-weight="300" fill="#1e1e1e" letter-spacing="1">investimentos</text>
</svg>
