<svg xmlns="http://www.w3.org/2000/svg" viewBox="0 0 400 100">
  <!-- XP icon: rounded square -->
  <rect x="0" y="0" width="100" height="100" rx="16" ry="16" fill="#1e1e1e"/>
  <!-- X letter (white) -->
  <path d="M24 22h12l14 18 14-18h12L60 54l18 24H66L50 58 34 78H22l18-24z" fill="#fff"/>
  <!-- P letter (white) -->
  <path d="M70 22h18c10 0 17 7 17 17s-7 17-17 17H80v22h-10V22zm10 25h7c5 0 8-3 8-8s-3-8-8-8h-7v16z" fill="#fff"/>
  <!-- "investimentos" as paths - each letter -->
  <!-- i -->
  <path d="M118 30h7v5h-7v-5zm0 12h7v36h-7V42z" fill="#1e1e1e"/>
  <!-- n -->
  <path d="M133 42h7v5c2.5-3.8 6-5.7 10.5-5.7 3.5 0 6.2 1 8.2 3.2 2 2.1 3 5.1 3 9v24.5h-7V54.5c0-2.7-.6-4.7-1.8-6-1.2-1.3-3-2-5.2-2-2.5 0-4.5.9-6 2.7-1.5 1.7-2.2 4-2.2 6.8V78h-7V42z" fill="#1e1e1e"/>
  <!-- v -->
  <path d="M168 42h7.5l9 27 9-27h7.5L189 78h-9z" fill="#1e1e1e"/>
  <!-- e -->
  <path d="M206 60.5c0-5.3 1.5-9.6 4.5-12.8 3-3.3 6.8-4.9 11.3-4.9 4.7 0 8.4 1.6 11.2 4.7 2.8 3.1 4.2 7.3 4.2 12.5v2h-24.2c.3 3 1.3 5.3 3.2 7 1.8 1.7 4.1 2.5 6.9 2.5 4.2 0 7.2-1.7 8.8-5.2l6 2.5c-1.3 3-3.3 5.3-6 6.8-2.7 1.6-5.7 2.4-9 2.4-4.8 0-8.7-1.6-11.6-4.8-2.9-3.2-4.3-7.4-4.3-12.7zm7.2-3.5h17c-.3-2.7-1.3-4.8-2.9-6.3-1.6-1.5-3.7-2.2-6.2-2.2-2.4 0-4.4.8-6 2.3-1.5 1.5-2.4 3.6-2.8 6.2z" fill="#1e1e1e"/>
  <!-- s -->
  <path d="M244.5 68.5l6-3c.8 2 2 3.4 3.5 4.3 1.5.9 3.2 1.3 5.2 1.3 2 0 3.5-.4 4.6-1.2 1.1-.8 1.7-1.9 1.7-3.3 0-1.2-.5-2.2-1.4-2.9-1-.7-2.8-1.5-5.5-2.3-3.3-1-5.7-2.3-7.3-3.8-1.6-1.5-2.4-3.5-2.4-5.8 0-3 1.1-5.4 3.3-7.1 2.2-1.8 5-2.7 8.3-2.7 2.8 0 5.2.7 7.2 2 2 1.3 3.4 3.2 4.2 5.5l-6 2.8c-.9-2.8-3-4.2-6.2-4.2-1.7 0-3 .4-4 1.1-1 .7-1.5 1.7-1.5 2.9 0 1.1.4 2 1.3 2.7.9.7 2.6 1.4 5.3 2.2 3.3 1 5.8 2.3 7.5 3.9 1.7 1.6 2.5 3.6 2.5 6.1 0 3.1-1.2 5.5-3.5 7.3-2.3 1.8-5.3 2.7-8.8 2.7-3.2 0-5.9-.8-8.2-2.3-2.3-1.6-3.9-3.7-4.8-6.2z" fill="#1e1e1e"/>
  <!-- t -->
  <path d="M280 30h7v12h7v6h-7v20c0 1.3.3 2.2.8 2.7.5.5 1.4.8 2.7.8h3.5v6.5H290c-3 0-5.2-.7-6.6-2.2-1.4-1.5-2.1-3.6-2.1-6.3V48h-5v-6h5V30z" fill="#1e1e1e"/>
  <!-- i -->
  <path d="M300 30h7v5h-7v-5zm0 12h7v36h-7V42z" fill="#1e1e1e"/>
  <!-- m -->
  <path d="M315 42h7v5c1.2-1.9 2.8-3.4 4.8-4.4 2-.9 4-1.4 6.2-1.4 2.5 0 4.6.6 6.3 1.8 1.7 1.2 2.9 2.9 3.5 5 1.3-2.2 3-3.8 5.2-5 2.1-1.2 4.4-1.8 6.8-1.8 3.5 0 6.2 1.1 8 3.2 1.9 2.2 2.8 5.2 2.8 9V78h-7V54.5c0-2.6-.6-4.6-1.7-5.9-1.1-1.3-2.8-2-4.8-2-2.3 0-4.1.8-5.5 2.5-1.4 1.7-2 3.9-2 6.7V78h-7V54.5c0-2.6-.6-4.6-1.7-5.9-1.1-1.3-2.7-2-4.8-2-2.3 0-4.1.8-5.5 2.5-1.4 1.7-2.1 3.9-2.1 6.7V78h-7V42z" fill="#1e1e1e"/>
  <!-- e -->
  <path d="M374 60.5c0-5.3 1.5-9.6 4.5-12.8 3-3.3 6.5-4.9 10.5-4.9 4.2 0 7.6 1.6 10.2 4.7 2.6 3.1 3.9 7.3 3.9 12.5v2H381c.3 3 1.3 5.3 3 7 1.7 1.7 3.9 2.5 6.5 2.5 3.8 0 6.5-1.7 8-5.2l6 2.5c-1.2 3-3 5.3-5.5 6.8-2.5 1.6-5.3 2.4-8.5 2.4-4.5 0-8.1-1.6-10.8-4.8-2.8-3.2-4.2-7.4-4.2-12.7zm7-3.5h16c-.3-2.7-1.2-4.8-2.7-6.3-1.5-1.5-3.5-2.2-5.8-2.2-2.3 0-4.2.8-5.6 2.3-1.5 1.5-2.3 3.6-2.6 6.2z" fill="#1e1e1e"/>
</svg>
